<svg width="20" height="20" viewBox="0 0 20 20" fill="none" xmlns="http://www.w3.org/2000/svg">
  <path d="M13.5 3.5C15.2 3.5 16.5 4.8 16.5 6.5C16.5 8.2 15.2 9.5 13.5 9.5C13.2 9.5 12.9 9.4 12.6 9.3C12.3 9.8 11.8 10.1 11.2 10.1H8.8C8.2 10.1 7.7 9.8 7.4 9.3C7.1 9.4 6.8 9.5 6.5 9.5C4.8 9.5 3.5 8.2 3.5 6.5C3.5 4.8 4.8 3.5 6.5 3.5C6.8 3.5 7.1 3.6 7.4 3.7C7.7 3.2 8.2 2.9 8.8 2.9H11.2C11.8 2.9 12.3 3.2 12.6 3.7C12.9 3.6 13.2 3.5 13.5 3.5Z" fill="currentColor"/>
  <path d="M6.5 11.5C4.8 11.5 3.5 12.8 3.5 14.5V16H9.5V14.5C9.5 12.8 8.2 11.5 6.5 11.5Z" fill="currentColor"/>
  <path d="M13.5 11.5C11.8 11.5 10.5 12.8 10.5 14.5V16H16.5V14.5C16.5 12.8 15.2 11.5 13.5 11.5Z" fill="currentColor"/>
  <path d="M10 5C10.6 5 11 5.4 11 6C11 6.6 10.6 7 10 7C9.4 7 9 6.6 9 6C9 5.4 9.4 5 10 5Z" fill="currentColor"/>
  <path d="M10 9C8.3 9 7 10.3 7 12V13H13V12C13 10.3 11.7 9 10 9Z" fill="currentColor"/>
</svg>
